<?xml version="1.0" encoding="utf-8"?>
<!-- Generator: Adobe Illustrator 26.0.1, SVG Export Plug-In . SVG Version: 6.00 Build 0)  -->
<svg version="1.1" id="Layer_1" xmlns="http://www.w3.org/2000/svg" xmlns:xlink="http://www.w3.org/1999/xlink" x="0px" y="0px"
	 viewBox="0 0 491.2 132.6" style="enable-background:new 0 0 491.2 132.6;" xml:space="preserve">
<style type="text/css">
	.st0{fill:#5BB6A3;}
	.st1{fill:#1F3C63;}
	.st2{enable-background:new    ;}
	.st3{fill:none;stroke:#000000;stroke-width:0.5;stroke-miterlimit:10;}
</style>
<path class="st0" d="M170.6,59.3c0,2.7-0.5,5.4-1.7,7.9c-1.1,2.3-2.6,4.4-4.6,6.1s-4.2,3.1-6.7,4c-2.6,0.9-5.4,1.4-8.2,1.4h-9.7v10
	c0,0.9-0.3,1.7-0.9,2.3c-1.3,1.3-3.4,1.3-4.6,0c-0.6-0.6-0.9-1.4-1-2.3V42.6c0-0.4,0-0.7-0.1-1.1c-0.1-0.3-0.1-0.7-0.1-1
	c0-0.4,0.2-0.8,0.5-1c0.6-0.3,1.3-0.4,2-0.4h14c2.8,0,5.6,0.5,8.2,1.5c2.5,1,4.8,2.4,6.7,4.2s3.5,4,4.6,6.4
	C170,53.8,170.6,56.6,170.6,59.3z M164.2,59.5c0-1.9-0.4-3.9-1.1-5.6c-0.8-1.7-1.8-3.2-3.2-4.5c-2.8-2.6-6.5-4.1-10.4-4.1h-9.8v27.5
	h9.8c1.9,0,3.9-0.3,5.7-1c1.7-0.6,3.3-1.4,4.7-2.6C162.6,66.7,164.2,63.2,164.2,59.5L164.2,59.5z"/>
<path class="st0" d="M183.2,71.8c0,1.8,0.3,3.7,1,5.4c0.6,1.6,1.5,3.1,2.7,4.4s2.6,2.3,4.1,3c1.6,0.8,3.4,1.1,5.2,1.1
	c1.9,0,3.7-0.4,5.4-1.2c1.7-0.8,3.3-1.8,4.6-3.1c1.3-1.3,2.4-2.8,3.2-4.5s1.2-3.5,1.2-5.3l1.7,11.2c-0.8,1.2-1.7,2.3-2.7,3.3
	c-1.2,1.2-2.5,2.2-3.9,3c-1.5,0.9-3.1,1.6-4.8,2.1c-1.7,0.6-3.6,0.8-5.4,0.8c-2.6,0-5.2-0.5-7.6-1.6c-2.3-1-4.3-2.5-6-4.3
	c-1.7-1.9-3-4-3.9-6.4c-1-2.5-1.4-5.2-1.4-8V54.9c0-0.4,0.1-0.8,0.2-1.2c0.2-0.4,0.4-0.7,0.6-1c0.3-0.3,0.6-0.6,1-0.8
	s0.9-0.3,1.4-0.3c0.9,0,1.7,0.4,2.4,1c0.6,0.6,1,1.5,1,2.3V71.8z M217.1,90.3c0.1,0.8-0.5,1.6-1.3,1.7c-0.1,0-0.3,0-0.4,0
	c-0.4,0-0.8-0.1-1.1-0.2c-0.4-0.2-0.7-0.4-1-0.8c-0.4-0.4-0.6-0.9-0.8-1.5c-0.2-0.8-0.4-1.6-0.4-2.4l-0.9-7.6l-0.5-1V54.8
	c0-0.9,0.3-1.7,0.9-2.3c1.3-1.3,3.4-1.3,4.6,0c0.6,0.6,0.9,1.5,0.9,2.3V90.3z"/>
<path class="st0" d="M226.7,42.5c0-0.9,0.3-1.7,0.9-2.3c0.6-0.7,1.5-1,2.4-1s1.7,0.4,2.3,1s1,1.4,1,2.3v46.3c0,0.9-0.4,1.7-1,2.3
	c-0.6,0.6-1.4,1-2.3,1c-0.9,0-1.8-0.3-2.4-1c-0.6-0.6-0.9-1.5-0.9-2.3V42.5z"/>
<path class="st0" d="M258.3,92c-1.9,0-3.8-0.2-5.7-0.7c-1.9-0.4-3.7-1.1-5.4-2c-1.6-0.8-3-2-4.2-3.3s-2-2.8-2.3-4.5
	c-0.1-0.5,0-1,0.1-1.5c0.2-0.4,0.4-0.8,0.8-1.1c0.3-0.3,0.7-0.4,1.2-0.5c0.5,0,1,0.1,1.4,0.4c0.6,0.4,1.2,0.9,1.7,1.5
	c0.8,0.9,1.7,1.7,2.7,2.4c1.2,0.9,2.5,1.7,3.9,2.3c1.7,0.7,3.6,1.2,5.5,1.2c1.5,0,3,0,4.5-0.2c1.3-0.1,2.5-0.5,3.7-1
	c1-0.4,1.9-1.1,2.6-1.9c0.7-0.9,1-1.9,1-3c0-0.9-0.4-1.8-1.1-2.4c-0.9-0.8-2-1.4-3.1-1.8c-1.4-0.6-2.9-1.1-4.3-1.6
	c-1.6-0.5-3.3-1-4.9-1.6c-1.7-0.6-3.3-1.1-4.9-1.8c-1.5-0.6-2.9-1.4-4.2-2.3c-1.2-0.8-2.1-1.9-2.9-3.1c-0.7-1.2-1-2.7-0.9-4.1
	c0.1-1.3,0.4-2.6,1-3.7c0.7-1.3,1.6-2.4,2.8-3.3c1.4-1,3-1.8,4.7-2.3c2.2-0.6,4.5-1,6.9-0.9c1.6,0,3.2,0.1,4.8,0.4
	c1.5,0.3,3,0.7,4.4,1.3c1.3,0.6,2.6,1.4,3.7,2.3c1.1,0.9,2,2,2.6,3.3c0.4,1,0.1,2.2-0.8,2.8c-0.4,0.3-0.9,0.5-1.4,0.6
	s-1.1,0-1.5-0.3c-0.6-0.4-1.2-0.8-1.8-1.2c-0.7-0.5-1.4-1-2.2-1.5c-0.9-0.5-1.9-1-2.9-1.3c-1.2-0.4-2.5-0.6-3.8-0.7
	c-2.5-0.2-5,0.1-7.3,1.1c-1.7,0.7-2.8,2.4-2.7,4.2c0,1.1,0.8,2.2,2.4,3.2c2.5,1.4,5.2,2.5,8,3.2c1.9,0.5,3.8,1.1,5.7,1.7
	c1.8,0.6,3.5,1.3,5.1,2.2c1.4,0.8,2.7,1.9,3.7,3.2c1,1.4,1.5,3.1,1.4,4.8c0.1,1.9-0.5,3.7-1.5,5.3c-1.1,1.5-2.5,2.7-4.1,3.5
	c-1.8,0.9-3.7,1.6-5.8,1.9C262.7,91.8,260.5,92,258.3,92z"/>
<path class="st0" d="M301.4,92c-2.7,0-5.4-0.5-7.8-1.6c-2.4-1-4.6-2.5-6.4-4.3c-1.9-1.8-3.3-4-4.4-6.4c-1.1-2.5-1.6-5.1-1.6-7.8
	c0-2.9,0.5-5.7,1.7-8.3c1.1-2.4,2.6-4.6,4.5-6.4c1.9-1.8,4.2-3.2,6.6-4.1c2.5-1,5.2-1.5,7.9-1.5c5.3,0,10.3,2,14.1,5.7
	c1.8,1.8,3.2,4,4.2,6.3c1,2.5,1.6,5.2,1.5,7.9c0,0.4,0,0.8-0.1,1.2c-0.1,0.3-0.2,0.6-0.5,0.8c-0.3,0.2-0.7,0.4-1.1,0.4
	c-0.6,0.1-1.3,0.1-1.9,0.1h-30.2c0.1,1.7,0.6,3.3,1.4,4.8c0.7,1.5,1.8,2.9,3,4s2.6,2.1,4.2,2.7c1.6,0.7,3.3,1,5,1s3.3-0.3,4.9-0.9
	s3-1.5,4.3-2.6c0.4-0.3,1-0.5,1.5-0.5c1.1-0.1,2.3,0.3,3,1.2c0.4,0.5,0.6,1.1,0.6,1.7c-0.1,1-0.5,1.8-1.3,2.4
	c-1,0.9-2.1,1.6-3.4,2.1c-1.5,0.7-3,1.2-4.6,1.5C304.8,91.9,303.1,92.1,301.4,92z M301.9,57c-1.7,0-3.5,0.3-5.1,1
	c-3.2,1.2-5.8,3.6-7.4,6.5c-0.8,1.5-1.3,3.1-1.5,4.8h27.2c-0.1-1.7-0.6-3.3-1.3-4.8c-0.7-1.5-1.7-2.8-2.9-3.9
	C308.5,58.4,305.3,57.1,301.9,57L301.9,57z"/>
<path class="st1" d="M359.7,42.6c0,0.9-0.3,1.8-1,2.4c-0.7,0.6-1.6,0.9-2.6,0.9h-14.4l-0.1,42.9c0,0.9-0.3,1.7-0.9,2.3
	c-0.6,0.7-1.4,1-2.3,1s-1.7-0.3-2.3-0.9c-0.6-0.6-0.9-1.5-0.9-2.3v-43h-14.6c-0.9,0-1.8-0.3-2.5-0.9c-0.7-0.6-1-1.5-1-2.4
	s0.4-1.7,1-2.3c0.7-0.7,1.6-1,2.5-1h35.5c0.9,0,1.9,0.3,2.6,0.8C359.4,40.8,359.8,41.7,359.7,42.6z"/>
<path class="st1" d="M372.5,92c-2.7,0-5.4-0.5-7.8-1.6c-2.4-1-4.6-2.5-6.4-4.3c-1.9-1.8-3.3-4-4.4-6.4c-1.1-2.5-1.6-5.1-1.6-7.8
	c0-2.9,0.5-5.7,1.7-8.3c1.1-2.4,2.6-4.6,4.5-6.4c1.9-1.8,4.2-3.2,6.6-4.1c2.5-1,5.2-1.5,8-1.5c5.3,0,10.3,2,14.1,5.7
	c1.8,1.8,3.2,4,4.2,6.3c1,2.5,1.5,5.2,1.5,7.9c0,0.4,0,0.8-0.1,1.2c-0.1,0.3-0.2,0.6-0.5,0.8c-0.3,0.2-0.7,0.4-1.1,0.4
	c-0.6,0.1-1.3,0.1-1.9,0.1H359c0.1,1.7,0.6,3.3,1.4,4.8c0.7,1.5,1.8,2.9,3,4s2.6,2.1,4.2,2.7c1.6,0.7,3.3,1,5,1s3.4-0.3,4.9-0.9
	c1.6-0.6,3-1.5,4.3-2.6c0.4-0.3,1-0.5,1.5-0.5c1.1-0.1,2.3,0.3,3,1.2c0.4,0.5,0.6,1.1,0.6,1.7c-0.1,1-0.5,1.9-1.3,2.4
	c-1,0.9-2.1,1.6-3.4,2.1c-1.5,0.7-3,1.2-4.6,1.5C375.9,91.9,374.2,92.1,372.5,92z M373,57c-1.7,0-3.5,0.3-5.1,1
	c-3.2,1.2-5.8,3.6-7.4,6.5c-0.8,1.5-1.3,3.1-1.5,4.8h27.2c-0.1-1.7-0.6-3.3-1.3-4.8c-0.7-1.5-1.7-2.8-2.9-3.9
	C379.6,58.4,376.4,57.1,373,57L373,57z"/>
<path class="st1" d="M432.1,56.9c0.6,0.6,1,1.5,1,2.4c0,0.5-0.1,1-0.4,1.4c-0.2,0.4-0.6,0.7-0.9,1c-0.4,0.3-0.9,0.5-1.3,0.5
	c-0.5,0.1-1,0-1.5-0.2c-1.4-1-3-1.9-4.6-2.6c-1.7-0.7-3.5-1.1-5.3-1.3c-3.7-0.2-7.4,1.1-10.2,3.7c-1.4,1.2-2.5,2.7-3.2,4.4
	c-0.8,1.8-1.2,3.8-1.2,5.8c0,1.9,0.4,3.8,1.1,5.6c0.7,1.7,1.8,3.2,3.1,4.4c2.8,2.6,6.5,4,10.4,3.7c1.7-0.1,3.4-0.4,4.9-1.1
	c1.6-0.6,3-1.6,4.3-2.7c0.4-0.3,0.9-0.4,1.3-0.5c0.5-0.1,1,0,1.5,0.1c0.6,0.1,1.2,0.5,1.5,1c0.4,0.5,0.6,1.2,0.6,1.9
	c-0.1,1-0.5,2-1.3,2.7c-1,1-2.1,1.9-3.4,2.5c-1.5,0.8-3.2,1.4-4.9,1.9c-1.8,0.5-3.7,0.7-5.6,0.7c-2.7,0-5.4-0.5-7.9-1.6
	c-4.9-2.1-8.7-5.9-10.8-10.8c-2.1-5-2.1-10.7,0-15.7c2.1-4.9,5.9-8.7,10.8-10.8c2.5-1.1,5.2-1.6,7.9-1.6c1.3,0,2.6,0.1,3.9,0.3
	s2.6,0.6,3.8,1c1.2,0.4,2.4,1,3.5,1.6S431.2,56,432.1,56.9z"/>
<path class="st1" d="M440.6,42.5c0-0.9,0.3-1.7,0.9-2.3c0.6-0.7,1.5-1,2.4-1s1.7,0.4,2.3,1c0.6,0.6,1,1.4,1,2.3v46.3
	c0,0.9-0.4,1.7-1,2.3c-0.6,0.6-1.4,1-2.3,1s-1.8-0.3-2.4-1c-0.6-0.6-0.9-1.5-0.9-2.3V42.5z M474.6,83.1V71.8c0-1.8-0.3-3.7-1-5.4
	c-0.6-1.6-1.6-3.1-2.7-4.4c-1.2-1.3-2.6-2.3-4.1-3c-1.7-0.7-3.4-1.1-5.3-1.1s-3.8,0.4-5.5,1.3c-1.7,0.9-3.3,2-4.6,3.4
	c-1.3,1.4-2.4,3.1-3.1,4.8s-1.1,3.6-1.1,5.5L447,61.5c0.5-1.1,1.1-2.2,1.8-3.1c1-1.2,2.1-2.3,3.3-3.3c1.4-1.1,3-1.9,4.6-2.6
	c1.8-0.7,3.7-1,5.7-1c2.6,0,5.1,0.5,7.5,1.6c2.3,1,4.3,2.5,6,4.3c1.7,1.9,3,4,3.9,6.4c0.9,2.5,1.4,5.2,1.4,7.9v12L474.6,83.1z
	 M481.1,81.9v6.7c0,0.9-0.3,1.7-0.9,2.4c-1,1.1-2.5,1.3-3.9,0.7c-0.4-0.2-0.7-0.5-1-0.9s-0.5-0.8-0.6-1.2c-0.1-0.4-0.2-0.9-0.2-1.3
	v-6.6L481.1,81.9z"/>
<path class="st0" d="M15.6,113V37.4l30.5-19.3l29.9,18v37.7l16-4.9v-36c0-3.6-1.9-6.9-4.9-8.8L51.7,2.2c-3.4-2.1-7.7-2-11,0.1
	l-35,22.5c-3,1.9-4.7,5.2-4.8,8.7v62.8c0,3.2,1.4,6.1,3.9,8.1L15.6,113z"/>
<polygon class="st1" points="45.1,82.7 29.5,89.1 29.5,45.3 45,35.2 45,78.5 "/>
<path class="st1" d="M89.6,87.4v14.7c0,2.7-1.4,5.1-3.7,6.5l-35.3,20.9c-2.5,1.5-5.7,1.4-8.1-0.3l-13-8.9v-28l15.8-4.2l0.8,24.9
	L89.6,87.4z"/>
<path class="st1" d="M26.2,91.7c7.2-2.6,14.4-5,21.6-7.6l-0.4,0.5c0.6-4,1.3-8,1.9-12l0.5-3.3l1,3.2l6.4,20.1L55,92.8
	c1.1-12,2.3-24.1,3.5-36.2l1-10.2l1.6,10.2c0.9,6,1.8,12.1,2.7,18.2L66.4,93h-2.3c0.7-4.1,1.5-8.1,2.3-12.2l2.4-12.2l0.5-2.7
	l0.9,2.5c0.9,2.7,1.9,5.3,2.7,8l-0.7-0.3c6.7-2.2,13.3-4.5,20-6.6c-6.5,2.6-13.1,5.1-19.6,7.7l-0.5,0.2l-0.2-0.5
	c-1-2.6-2.1-5.3-3.1-7.9l1.5-0.1l-1.9,12.2c-0.6,4.1-1.2,8.2-1.9,12.2l-1.2,7.1l-1.1-7.1l-2.8-18.1c-0.9-6-1.8-12.1-2.7-18.2
	l2.6-0.1C60.1,69,58.7,81,57.4,93l-0.6,5.5l-1.5-5.3L49.4,73l1.6-0.1c-0.8,4-1.5,7.9-2.3,11.9l-0.1,0.4l-0.3,0.1
	C40.8,87.4,33.5,89.6,26.2,91.7z"/>
<g class="st2">
	<path d="M478.4,46.9V42h-1.8v-0.7h4.4V42h-1.8v4.9H478.4z"/>
	<path d="M481.8,46.9v-5.6h1.1l1.3,4c0.1,0.4,0.2,0.6,0.3,0.8c0.1-0.2,0.2-0.5,0.3-0.9l1.3-3.9h1v5.6h-0.7v-4.7l-1.6,4.7h-0.7
		l-1.6-4.8v4.8C482.5,46.9,481.8,46.9,481.8,46.9z"/>
</g>
<circle class="st3" cx="482.4" cy="43.5" r="7.1"/>
</svg>
